<svg xmlns="http://www.w3.org/2000/svg" width="24" height="12" viewBox="0 0 24 12"><g transform="translate(-167.6 -185.6)"><path d="M12.1,1.6a1.5,1.5,0,0,1,1.5,1.5v9a1.5,1.5,0,0,1-1.5,1.5h-9a1.5,1.5,0,0,1-1.5-1.5v-9A1.5,1.5,0,0,1,3.1,1.6ZM7.6,3.85a.75.75,0,0,0-.75.75h0V6.85H4.6a.75.75,0,0,0-.744.656L3.85,7.6a.75.75,0,0,0,.75.75H6.85V10.6a.75.75,0,0,0,.656.744l.094.006a.75.75,0,0,0,.75-.75h0V8.35H10.6a.75.75,0,0,0,.744-.656L11.35,7.6a.75.75,0,0,0-.75-.75H8.35V4.6a.75.75,0,0,0-.656-.744Z" transform="translate(166 184)" fill="#00a0ff" fill-rule="evenodd"/><path d="M12.1,1.6a1.5,1.5,0,0,1,1.5,1.5v9a1.5,1.5,0,0,1-1.5,1.5h-9a1.5,1.5,0,0,1-1.5-1.5v-9A1.5,1.5,0,0,1,3.1,1.6ZM6.85,6.85H4.6a.75.75,0,0,0-.744.656L3.85,7.6a.75.75,0,0,0,.75.75h6a.75.75,0,0,0,.744-.656L11.35,7.6a.75.75,0,0,0-.75-.75H6.85Z" transform="translate(178 184)" fill="#00a0ff" fill-rule="evenodd"/></g></svg>